<?xml version="1.0" encoding="UTF-8" standalone="no"?><!DOCTYPE svg PUBLIC "-//W3C//DTD SVG 1.1//EN" "http://www.w3.org/Graphics/SVG/1.1/DTD/svg11.dtd"><svg width="100%" height="100%" viewBox="0 0 431 112" version="1.1" xmlns="http://www.w3.org/2000/svg" xmlns:xlink="http://www.w3.org/1999/xlink" xml:space="preserve" style="fill-rule:evenodd;clip-rule:evenodd;stroke-linejoin:round;stroke-miterlimit:1.41421;"><g><path d="M25.556,3.087c4.416,-3.072 9.504,-3.408 15.264,-1.008c2.112,0.864 5.568,1.296 10.368,1.296c4.8,0 9.36,-0.432 13.68,-1.296c4.128,-0.96 7.68,-1.44 10.656,-1.44l4.464,0l-0.864,2.88c-1.056,3.456 -3.168,6.648 -6.336,9.576c-3.168,2.928 -7.008,5.16 -11.52,6.696c-2.88,0.864 -6.912,1.2 -12.096,1.008c-3.168,-0.192 -5.568,-0.48 -7.2,-0.864c-1.632,-0.384 -3.6,-1.2 -5.904,-2.448c-2.688,-1.344 -4.392,-2.088 -5.112,-2.232c-0.72,-0.144 -1.464,0.12 -2.232,0.792c-1.056,1.056 -1.92,2.448 -2.592,4.176c-1.152,2.688 -0.432,5.352 2.16,7.992c2.592,2.64 8.352,6.648 17.28,12.024c5.088,3.072 7.8,4.608 8.136,4.608c0.336,0 2.52,-2.688 6.552,-8.064c3.936,-5.472 7.152,-8.736 9.648,-9.792c2.688,-1.152 4.752,-1.656 6.192,-1.512c1.44,0.144 2.592,0.984 3.456,2.52c0.96,1.728 1.248,3.216 0.864,4.464c-0.192,0.576 -0.984,1.44 -2.376,2.592c-1.392,1.152 -2.904,2.184 -4.536,3.096c-1.632,0.912 -2.784,1.368 -3.456,1.368c-0.576,0 -1.656,0.864 -3.24,2.592c-1.584,1.728 -2.904,3.456 -3.96,5.184c-0.384,0.768 1.344,3.168 5.184,7.2c3.936,4.128 6.696,7.896 8.28,11.304c1.584,3.408 2.328,7.32 2.232,11.736c-0.192,11.232 -5.232,20.016 -15.12,26.352c-3.456,2.112 -5.784,3.12 -6.984,3.024c-1.2,-0.096 -3.384,-1.536 -6.552,-4.32c-5.664,-4.896 -10.152,-8.16 -13.464,-9.792c-3.312,-1.632 -6.192,-1.944 -8.64,-0.936c-2.448,1.008 -5.016,3.576 -7.704,7.704c-2.4,3.36 -4.32,5.52 -5.76,6.48c-1.44,0.96 -3.6,1.44 -6.48,1.44c-2.784,0 -4.704,-0.552 -5.76,-1.656c-1.056,-1.104 -1.584,-3.144 -1.584,-6.12c0,-5.28 2.184,-9.888 6.552,-13.824c4.368,-3.936 10.536,-6.96 18.504,-9.072l6.192,-1.584l6.48,-8.64c4.32,-5.76 6.336,-8.88 6.048,-9.36c-0.384,-0.576 -3.888,-2.64 -10.512,-6.192c-3.168,-1.728 -5.736,-3.192 -7.704,-4.392c-1.968,-1.2 -3.696,-2.4 -5.184,-3.6c-1.488,-1.2 -2.688,-2.352 -3.6,-3.456c-0.912,-1.104 -1.8,-2.424 -2.664,-3.96c-3.072,-5.28 -3.6,-10.848 -1.584,-16.704c2.016,-5.856 6.192,-11.136 12.528,-15.84Zm33.12,61.776c-2.784,-2.208 -4.56,-3.312 -5.328,-3.312c-0.576,0 -2.616,2.232 -6.12,6.696c-3.504,4.464 -5.256,7.08 -5.256,7.848c0,0.672 2.88,2.736 8.64,6.192l8.496,5.328l2.736,-3.312c1.92,-2.208 3.072,-4.224 3.456,-6.048c0.288,-1.248 0.192,-2.688 -0.288,-4.32c-0.48,-1.632 -1.272,-3.24 -2.376,-4.824c-1.104,-1.584 -2.424,-3 -3.96,-4.248Z" style="fill:none;stroke:#333;stroke-width:1px;"/><path d="M167.108,3.807c3.264,-1.632 7.632,-1.488 13.104,0.432c6.048,2.112 10.944,2.064 14.688,-0.144c2.016,-1.248 3.216,-1.584 3.6,-1.008c0.576,0.576 7.632,18.624 21.168,54.144c6.24,16.224 10.248,25.752 12.024,28.584c1.776,2.832 4.68,4.008 8.712,3.528c3.072,-0.384 4.656,-0.144 4.752,0.72c0,1.152 -1.632,4.512 -4.896,10.08c-3.456,6.048 -5.616,9.504 -6.48,10.368c-0.864,0.864 -2.064,0.816 -3.6,-0.144c-2.784,-1.632 -5.688,-4.368 -8.712,-8.208c-3.024,-3.84 -5.688,-8.16 -7.992,-12.96c-0.48,-0.96 -2.448,-5.136 -5.904,-12.528l-1.584,-3.168l-11.952,-0.288c-8.064,-0.096 -12.384,0.192 -12.96,0.864c-0.864,1.152 -1.944,3.936 -3.24,8.352c-1.296,4.416 -1.704,6.768 -1.224,7.056c0.576,0.384 2.928,0.768 7.056,1.152l6.48,0.576l-0.288,2.88c-0.096,3.072 -1.776,5.928 -5.04,8.568c-3.264,2.64 -6.816,3.96 -10.656,3.96c-2.304,0 -5.376,-0.576 -9.216,-1.728c-3.744,-1.152 -6.432,-1.704 -8.064,-1.656c-1.632,0.048 -3.744,0.792 -6.336,2.232c-2.88,1.44 -4.752,2.016 -5.616,1.728c-0.864,-0.384 -1.248,-1.536 -1.152,-3.456c0.096,-1.92 0.672,-3.888 1.728,-5.904c0.96,-2.016 2.328,-3.696 4.104,-5.04c1.776,-1.344 4.584,-2.928 8.424,-4.752l5.616,-2.448l4.608,-13.968c3.072,-9.504 4.608,-14.4 4.608,-14.688c0,-0.864 -1.344,-0.912 -4.032,-0.144c-0.768,0.192 -1.488,0.48 -2.16,0.864c-2.016,1.152 -3.408,1.56 -4.176,1.224c-0.768,-0.336 -1.152,-1.56 -1.152,-3.672c0.096,-5.856 3.984,-9.456 11.664,-10.8c2.208,-0.48 3.552,-1.056 4.032,-1.728c0.864,-0.96 2.304,-4.728 4.32,-11.304c2.016,-6.576 2.832,-10.056 2.448,-10.44c-0.48,-0.48 -3.648,-1.824 -9.504,-4.032l-8.784,-3.168l-2.304,2.304c-1.632,1.536 -2.784,2.256 -3.456,2.16c-0.672,-0.096 -1.008,-0.96 -1.008,-2.592c0,-4.896 2.784,-8.832 8.352,-11.808Zm31.392,46.944c-3.072,-8.544 -5.04,-12.816 -5.904,-12.816c-0.288,0 -0.48,0.24 -0.576,0.72c-1.344,3.552 -2.904,8.376 -4.68,14.472c-1.776,6.096 -2.568,9.288 -2.376,9.576c0.192,0.48 3.072,0.72 8.64,0.72c5.568,0 8.448,-0.24 8.64,-0.72c0.288,-0.48 -0.96,-4.464 -3.744,-11.952Z" style="fill:none;stroke:#333;stroke-width:1px;"/><path d="M351.284,4.815c4.128,-2.688 6.72,-4.032 7.776,-4.032c1.248,-0.096 3.936,1.92 8.064,6.048c4.128,4.128 6.504,6.192 7.128,6.192c0.624,0 2.904,-2.064 6.84,-6.192l5.616,-6.192c3.744,0.096 7.488,0.144 11.232,0.144l19.44,20.736l0.432,30.528c0.384,20.448 0.912,31.008 1.584,31.68c0.672,0.672 2.592,1.536 5.76,2.592c3.072,0.96 4.704,1.872 4.896,2.736c0.096,0.96 -1.824,4.176 -5.76,9.648c-2.688,3.744 -4.536,6.096 -5.544,7.056c-1.008,0.96 -2.232,1.488 -3.672,1.584c-0.576,0.096 -1.2,0.072 -1.872,-0.072c-0.672,-0.144 -1.344,-0.336 -2.016,-0.576c-0.672,-0.24 -1.344,-0.576 -2.016,-1.008c-0.672,-0.432 -1.296,-0.912 -1.872,-1.44c-0.576,-0.528 -1.128,-1.104 -1.656,-1.728c-0.528,-0.624 -0.984,-1.32 -1.368,-2.088c-0.864,-1.44 -1.416,-3.912 -1.656,-7.416c-0.24,-3.504 -0.456,-13.224 -0.648,-29.16c-0.192,-16.32 -0.408,-26.136 -0.648,-29.448c-0.24,-3.312 -0.84,-5.736 -1.8,-7.272c-3.072,-4.992 -5.904,-7.2 -8.496,-6.624c-5.184,1.344 -7.824,7.44 -7.92,18.288c0,5.184 0.288,8.064 0.864,8.64c0.576,0.672 2.448,0.264 5.616,-1.224c3.168,-1.488 4.944,-2.088 5.328,-1.8c0.576,0.288 0.528,1.584 -0.144,3.888c-0.672,2.304 -1.584,4.32 -2.736,6.048c-1.248,2.016 -3.024,3.84 -5.328,5.472l-3.024,2.16l-0.576,9.216c-0.672,9.408 0.192,16.56 2.592,21.456l1.44,3.168l-5.616,7.2c-3.84,4.8 -6,7.152 -6.48,7.056c-0.672,0 -2.496,-1.872 -5.472,-5.616l-4.752,-5.616l0,-17.712c0,-11.808 -0.288,-17.712 -0.864,-17.712c-0.576,0 -2.064,0.576 -4.464,1.728l-3.456,1.728l-0.864,-1.872c-1.728,-2.976 0.048,-6.864 5.328,-11.664l5.184,-4.896l0,-9.792c0,-6.528 -0.288,-10.464 -0.864,-11.808c-0.768,-1.344 -1.896,-2.808 -3.384,-4.392c-1.488,-1.584 -2.544,-2.376 -3.168,-2.376c-0.624,0 -1.704,0.792 -3.24,2.376c-1.536,1.584 -2.64,3.048 -3.312,4.392c-0.672,1.44 -1.008,13.152 -1.008,35.136l0,33.12l-5.904,6.48c-3.84,4.224 -5.952,6.336 -6.336,6.336c-0.384,0 -2.736,-1.104 -7.056,-3.312c-3.072,-1.632 -5.04,-2.544 -5.904,-2.736c-0.864,-0.192 -1.776,0.096 -2.736,0.864c-1.632,1.056 -2.832,1.296 -3.6,0.72c-0.768,-0.576 -1.152,-2.016 -1.152,-4.32c0,-1.152 0.096,-2.088 0.288,-2.808c0.192,-0.72 0.504,-1.416 0.936,-2.088c0.432,-0.672 1.128,-1.584 2.088,-2.736c1.056,-1.152 1.848,-1.944 2.376,-2.376c0.528,-0.432 1.2,-0.72 2.016,-0.864c0.816,-0.144 1.752,-0.12 2.808,0.072l4.032,0.144l0.288,-12.816c0.096,-8.544 0,-13.152 -0.288,-13.824c-0.192,-0.576 -0.72,-0.744 -1.584,-0.504c-0.864,0.24 -1.752,0.648 -2.664,1.224c-0.912,0.576 -1.8,0.792 -2.664,0.648c-0.864,-0.144 -1.44,-0.888 -1.728,-2.232c-0.768,-3.744 1.104,-7.392 5.616,-10.944l3.6,-2.88l-0.288,-12.96c-0.096,-6.24 -0.264,-10.104 -0.504,-11.592c-0.24,-1.488 -0.84,-2.712 -1.8,-3.672c-1.44,-1.632 -3.072,-2.568 -4.896,-2.808c-1.824,-0.24 -4.848,0.072 -9.072,0.936c-4.992,0.96 -7.632,1.296 -7.92,1.008c-0.384,-0.384 -0.36,-1.104 0.072,-2.16c0.432,-1.056 1.08,-2.208 1.944,-3.456c0.864,-1.248 1.944,-2.448 3.24,-3.6c1.296,-1.152 2.472,-2.016 3.528,-2.592c2.016,-1.056 5.016,-1.536 9,-1.44c3.984,0.096 7.992,0.72 12.024,1.872l6.624,2.016l6.192,-3.888Z" style="fill:none;stroke:#333;stroke-width:1px;"/></g></svg>